<svg id="Ebene_1" data-name="Ebene 1" xmlns="http://www.w3.org/2000/svg" width="40" viewBox="0 0 841.89 595.28"><defs><style>.cls-1,.cls-2,.cls-3{fill:none;}.cls-2,.cls-3{stroke:#fff;stroke-linecap:round;}.cls-2{stroke-linejoin:round;stroke-width:30.76px;}.cls-3{stroke-linejoin:bevel;stroke-width:30.76px;}</style></defs><g id="Ebene_2" data-name="Ebene 2"><g id="Ebene_1-2" data-name="Ebene 1-2"><circle class="cls-1" cx="420.94" cy="297.64" r="243.41"/><circle class="cls-2" cx="420.94" cy="297.64" r="243.41"/><path class="cls-3" d="M647.82,228.05s-56.38,48.15-152.36,46.64-147.41,46-147.67,45.21S287.49,371.5,194.08,367"/><path class="cls-3" d="M601.55,138.06a117.74,117.74,0,0,1-13.91,10.21c-21,13.52-64.88,35.4-127.2,33-89.53-3.48-136.5,42.7-136.76,41.87s-55.16,50-142.35,43.58"/><path class="cls-3" d="M516.86,80.21s-31.93,24.31-95.42,27.64-99.58,31-99.71,30.53-42.14,30.21-103.8,31.77"/><path class="cls-3" d="M625.1,430s-31.94,24.31-95.43,27.61-99.57,31-99.71,30.53-42.13,30.21-103.8,31.75"/><path class="cls-3" d="M664.16,318.85s-53.23,47.18-145,44.38-140.24,43.84-140.5,43-56,50.7-145.28,44.9"/><circle class="cls-2" cx="420.94" cy="297.64" r="243.41"/></g></g></svg>