<svg xmlns="http://www.w3.org/2000/svg" width="40" viewBox="0 0 517.58 517.58"><defs><style>.cls-1,.cls-2,.cls-3{fill:none;}.cls-2,.cls-3{stroke:#fff;stroke-linecap:round;stroke-width:30.76px;}.cls-2{stroke-linejoin:round;}.cls-3{stroke-linejoin:bevel;}</style></defs><g id="Ebene_2" data-name="Ebene 2"><g id="Ebene_1-2" data-name="Ebene 1"><circle class="cls-1" cx="258.79" cy="258.79" r="243.41" transform="translate(-107.2 258.79) rotate(-45)"/><circle class="cls-2" cx="258.79" cy="258.79" r="243.41" transform="translate(-107.2 258.79) rotate(-45)"/><path class="cls-3" d="M485.66,189.2s-56.38,48.15-152.36,46.64-147.41,46-147.67,45.21-60.3,51.6-153.71,47.05"/><path class="cls-3" d="M439.39,99.21a117.38,117.38,0,0,1-13.91,10.21c-21,13.52-64.88,35.4-127.2,33-89.53-3.48-136.5,42.7-136.76,41.87s-55.16,50-142.35,43.58"/><path class="cls-3" d="M354.7,41.36S322.77,65.67,259.28,69s-99.58,31-99.71,30.53-42.14,30.21-103.8,31.77"/><path class="cls-3" d="M462.94,391.11S431,415.42,367.51,418.72s-99.57,31-99.71,30.53S225.67,479.46,164,481"/><path class="cls-3" d="M502,280s-53.23,47.18-145,44.38-140.24,43.84-140.5,43-56,50.7-145.28,44.9"/><circle class="cls-2" cx="258.79" cy="258.79" r="243.41" transform="translate(-107.2 258.79) rotate(-45)"/></g></g></svg>