<?xml version="1.0" encoding="utf-8"?>
<!-- Generator: Adobe Illustrator 25.1.0, SVG Export Plug-In . SVG Version: 6.00 Build 0)  -->
<svg version="1.1" id="Ebene_1" xmlns="http://www.w3.org/2000/svg" xmlns:xlink="http://www.w3.org/1999/xlink" x="0px" y="0px"
	 viewBox="0 0 841.89 595.28" style="enable-background:new 0 0 841.89 595.28;" xml:space="preserve">
<style type="text/css">
	.st0{fill-rule:evenodd;clip-rule:evenodd;fill:#94C2E9;}
	.st1{fill:none;stroke:#FFFFFF;stroke-width:15.361;stroke-linecap:round;stroke-linejoin:round;stroke-miterlimit:10;}
	.st2{fill:none;stroke:#FFFFFF;stroke-width:15.361;stroke-linecap:round;stroke-linejoin:bevel;stroke-miterlimit:10;}
</style>
<g>
	<g>
		
			<ellipse transform="matrix(0.7071 -0.7071 0.7071 0.7071 -87.1698 384.8291)" class="st0" cx="420.94" cy="297.64" rx="121.57" ry="121.57"/>
		
			<ellipse transform="matrix(0.7071 -0.7071 0.7071 0.7071 -87.1698 384.8291)" class="st1" cx="420.94" cy="297.64" rx="121.57" ry="121.57"/>
		<path class="st2" d="M534.25,262.88c0,0-28.16,24.05-76.1,23.3c-47.94-0.75-73.62,22.99-73.75,22.58
			c-0.13-0.42-30.12,25.78-76.77,23.5"/>
		<path class="st2" d="M511.14,217.93c0,0-2.38,2.15-6.95,5.1c-10.46,6.75-32.4,17.68-63.53,16.47
			c-44.71-1.74-68.17,21.33-68.3,20.91c-0.13-0.42-27.55,24.99-71.1,21.77"/>
		<path class="st2" d="M468.84,189.04c0,0-15.95,12.14-47.66,13.79c-31.71,1.65-49.73,15.46-49.8,15.24
			c-0.07-0.22-21.04,15.09-51.84,15.87"/>
		<path class="st2" d="M522.9,363.73c0,0-15.95,12.14-47.66,13.79c-31.71,1.65-49.73,15.46-49.8,15.25
			c-0.07-0.22-21.04,15.09-51.84,15.87"/>
		<path class="st2" d="M542.42,308.2c0,0-26.59,23.56-72.41,22.17c-45.82-1.4-70.04,21.9-70.17,21.48
			c-0.13-0.42-27.94,25.32-72.56,22.43"/>
		
			<ellipse transform="matrix(0.7071 -0.7071 0.7071 0.7071 -87.1698 384.8291)" class="st1" cx="420.94" cy="297.64" rx="121.57" ry="121.57"/>
	</g>
</g>
</svg>
