<svg id="Ebene_1" data-name="Ebene 1" xmlns="http://www.w3.org/2000/svg" width="120" height="120" viewBox="0 0 63.51 29.12"><defs><style>.cls-1{fill:none;stroke:#2b92e8;stroke-miterlimit:10;}</style></defs><path class="cls-1" d="M426.33,306.9c-4.84,4.84-9.88,10.16-17.57,10.16-8,0-13.68-5.89-13.68-14.06a14.17,14.17,0,0,1,14.44-14.06c7,0,12.25,5.6,16.81,10.16,4.85-4.84,9.88-10.16,17.58-10.16,8.07,0,13.68,5.89,13.68,14.06a14.17,14.17,0,0,1-14.44,14.06C436.12,317.06,430.89,311.46,426.33,306.9Zm-3.8-3.9c-3.7-3.42-7.6-8.36-13.11-8.36a8.37,8.37,0,0,0-8.36,8.36c0,4.84,3.42,8.36,8.08,8.36C414.55,311.36,418.92,306.7,422.53,303Zm29.07,0c0-4.84-3.42-8.36-8.07-8.36-5.42,0-9.79,4.66-13.4,8.36,3.71,3.42,7.6,8.36,13.11,8.36A8.37,8.37,0,0,0,451.6,303Z" transform="translate(-394.58 -288.44)"/></svg>