<svg id="Ebene_1" data-name="Ebene 1" xmlns="http://www.w3.org/2000/svg" height="75px" style="margin-left: 3.5rem; font-family: Montserrat, sans-serif; margin-top: 8px" viewBox="0 0 193.3 52.24"><defs><style>.cls-1,.cls-2,.cls-6,.cls-7{fill:none;stroke:#2b92e8;stroke-miterlimit:10;}.cls-1{stroke-width:1.05px;}.cls-2,.cls-6,.cls-7{stroke-linecap:round;}.cls-2{stroke-width:0.73px;}.cls-3{font-size:15px;fill:#2b92e8;font-family:sans-serif;}.cls-4{letter-spacing:-0.04em;}.cls-5{letter-spacing:-0.01em;}.cls-6,.cls-7{stroke-width:0.37px;}.cls-7{stroke-dasharray:1.47 1.47;}</style></defs><path class="cls-1" d="M450.76,301.27a5.88,5.88,0,0,1,5.33-5.86V291.2a9,9,0,0,0-9-9H385.34a9,9,0,0,0-9,9v4.25h.25a5.89,5.89,0,1,1,0,11.78h-.25v5a9,9,0,0,0,9,9h61.78a9,9,0,0,0,9-9v-5.07A5.89,5.89,0,0,1,450.76,301.27Z" transform="translate(-375.85 -281.71)"/><line class="cls-2" x1="10.3" y1="9.36" x2="52.7" y2="9.36"/><text class="cls-3" transform="translate(10.51 26.75)"><tspan class="cls-4"> </tspan><tspan class="cls-5" x="2.56" y="0">T</tspan><tspan x="9.84" y="0">icket</tspan></text><line class="cls-6" x1="66.67" y1="0.98" x2="66.67" y2="1.71"/><line class="cls-7" x1="66.67" y1="3.18" x2="66.67" y2="37.76"/><line class="cls-6" x1="66.67" y1="38.5" x2="66.67" y2="39.23"/><line class="cls-2" x1="11.3" y1="32.97" x2="53.69" y2="32.97"/></svg>