<svg id="Ebene_1" data-name="Ebene 1" width="90" height="78" xmlns="http://www.w3.org/2000/svg" viewBox="0 0 174.44 86.35"><defs><style>.cls-1,.cls-2,.cls-6,.cls-7{fill:none;stroke:#2b92e8;stroke-miterlimit:10;}.cls-1{stroke-width:2.27px;}.cls-2,.cls-6,.cls-7{stroke-linecap:round;}.cls-2{stroke-width:1.58px;}.cls-3{font-size:32.4px;fill:#2b92e8;font-family:sans-serif;}.cls-4{letter-spacing:-0.04em;}.cls-5{letter-spacing:-0.01em;}.cls-6,.cls-7{stroke-width:0.79px;}.cls-7{stroke-dasharray:3.18 3.18;}</style></defs><path class="cls-1" d="M495.52,296.7A12.72,12.72,0,0,1,507,284V275a19.42,19.42,0,0,0-19.36-19.37H354.22A19.42,19.42,0,0,0,334.86,275v9.17l.53,0a12.72,12.72,0,1,1,0,25.43l-.53,0v10.78a19.42,19.42,0,0,0,19.36,19.37H487.67A19.42,19.42,0,0,0,507,320.31V309.36A12.72,12.72,0,0,1,495.52,296.7Z" transform="translate(-333.72 -254.46)"/><line class="cls-2" x1="22.25" y1="20.22" x2="113.81" y2="20.22"/><text class="cls-3" transform="translate(22.71 57.78)"><tspan class="cls-4"> </tspan><tspan class="cls-5" x="5.54" y="0">T</tspan><tspan x="21.25" y="0">icket</tspan></text><line class="cls-6" x1="144" y1="2.11" x2="144" y2="3.69"/><line class="cls-7" x1="144" y1="6.87" x2="144" y2="81.56"/><line class="cls-6" x1="144" y1="83.15" x2="144" y2="84.73"/><line class="cls-2" x1="24.4" y1="71.2" x2="115.96" y2="71.2"/></svg>