<svg id="Ebene_1" data-name="Ebene 1" xmlns="http://www.w3.org/2000/svg" width="103" viewBox="0 0 56.2 55.4"><defs><style>.cls-1,.cls-2{fill:none;stroke:#2b92e8;stroke-miterlimit:10;stroke-width:1.5px;}.cls-1{stroke-linecap:round;}</style></defs><polygon class="cls-1" points="17.65 9.29 21.83 8.02 23.28 0.75 32.64 0.75 34.09 8.02 37.46 9.57 43.18 5.93 49.36 12.11 46.36 17.66 47.81 21.93 54.45 23.02 54.45 32.75 47.81 33.84 46 37.47 50.08 43.11 42.68 50.52 37.64 46.47 34.09 47.84 32.09 54.65 23.19 54.65 22.01 48.02 18.01 46.11 12.11 50.02 5.75 42.93 9.29 37.75 7.75 33.2 0.75 32.38 0.75 22.93 8.11 21.48 9.84 17.84 5.66 12.38 12.33 5.7 17.65 9.29"/><ellipse class="cls-2" cx="426.77" cy="303.34" rx="11.2" ry="10.87" transform="translate(-379.8 356.4) rotate(-74.24)"/></svg>